<svg xmlns="http://www.w3.org/2000/svg" width="200" height="200" viewBox="0 0 200 200">
  <style>
    .st0{fill:#f0f0f0;}
    .st1{fill:#e0e0e0;}
    .st2{fill:#d0d0d0;}
    .st3{fill:#6c757d;}
  </style>
  <circle class="st0" cx="100" cy="100" r="90"/>
  <g>
    <path class="st1" d="M140,80c0,5.5-4.5,10-10,10H70c-5.5,0-10-4.5-10-10V60c0-5.5,4.5-10,10-10h60c5.5,0,10,4.5,10,10V80z"/>
    <path class="st2" d="M130,140H70c-5.5,0-10-4.5-10-10v-20c0-5.5,4.5-10,10-10h60c5.5,0,10,4.5,10,10v20C140,135.5,135.5,140,130,140z"/>
    <path class="st3" d="M85,70c0,1.7-1.3,3-3,3H75c-1.7,0-3-1.3-3-3v-2c0-1.7,1.3-3,3-3h7c1.7,0,3,1.3,3,3V70z"/>
    <path class="st3" d="M115,70c0,1.7-1.3,3-3,3h-7c-1.7,0-3-1.3-3-3v-2c0-1.7,1.3-3,3-3h7c1.7,0,3,1.3,3,3V70z"/>
    <path class="st3" d="M75,120c5.5,0,10-4.5,10-10s-4.5-10-10-10s-10,4.5-10,10S69.5,120,75,120z"/>
    <path class="st3" d="M110,100c-5.5,0-10,4.5-10,10s4.5,10,10,10s10-4.5,10-10S115.5,100,110,100z"/>
    <path class="st3" d="M90,120H95c0,0,2.5-5,5-5s5,5,5,5h5c0,0-5-15-10-15S90,120,90,120z"/>
    <line class="st3" x1="110" y1="75" x2="80" y2="75" stroke="#6c757d" stroke-width="2" stroke-linecap="round"/>
    <line class="st3" x1="120" y1="85" x2="70" y2="85" stroke="#6c757d" stroke-width="2" stroke-linecap="round"/>
  </g>
</svg> 